Artista: Rhapsody of Fire
Released 2004-09-27
Genre Power metal, Symphonic metal
Length 1:12:48
Label SPV GmbH
{SPV 085-69612 CD}
Producer Luca Turilli, Alex Staropoli
Formato: Flac
Fonte: Cd Originale
Ripped with EAC, secure no C2, accurate stream, disable cache.
EAC log, cue, m3u, Cover, info
Full Artwork

1. "The Dark Secret" - Ira Divina – 4:13
 2. "Unholy Warcry" – 5:54
 3. "Never Forgotten Heroes" – 5:32
 4. "Elgard's Green Valleys" – 2:20
 5. "The Magic of the Wizard's Dream" – 4:30
 6. "Erian's Mystical Rhymes - The White Dragon's Order" – 10:32
 7. "The Last Angel's Call" – 4:37
 8. "Dragonland's Rivers" – 3:45
 9. "Sacred Power of Raging Winds" – 10:06
10. "Guardiani del Destino" – 5:51
11. "Shadows of Death" – 8:13
12. "Nightfall on the Grey Mountains" – 7:20


Exact Audio Copy V0.99 prebeta 5 from 4. May 2009

EAC extraction logfile from 19. December 2010, 14:10

Rhapsody / Symphony Of Enchanted Lands II - The Dark Secret

Used drive  : _NEC    DVD_RW ND-4551A   Adapter: 2  ID: 2

Read mode               : Secure
Utilize accurate stream : Yes
Defeat audio cache      : Yes
Make use of C2 pointers : No

Read offset correction                      : 48
Overread into Lead-In and Lead-Out          : No
Fill up missing offset samples with silence : Yes
Delete leading and trailing silent blocks   : No
Null samples used in CRC calculations       : Yes
Used interface                              : Native Win32 interface for Win NT & 2000
Gap handling                                : Appended to previous track

Used output format              : User Defined Encoder
Selected bitrate                : 768 kBit/s
Quality                         : High
Add ID3 tag                     : No
Command line compressor         : C:\Programmi\Exact Audio Copy\FLAC\FLAC.EXE
Additional command line options : -8 -V -T "artist=%a" -T "title=%t" -T "album=%g" -T "date=%y" -T "tracknumber=%n" -T "genre=%m" %s


TOC of the extracted CD

    Track |   Start  |  Length  | Start sector | End sector
   ---------------------------------------------------------
       1  |  0:00.00 |  4:12.74 |         0    |    18973  
       2  |  4:12.74 |  5:53.39 |     18974    |    45487  
       3  | 10:06.38 |  5:32.37 |     45488    |    70424  
       4  | 15:39.00 |  2:19.55 |     70425    |    80904  
       5  | 17:58.55 |  4:30.04 |     80905    |   101158  
       6  | 22:28.59 | 10:31.54 |    101159    |   148537  
       7  | 33:00.38 |  4:36.50 |    148538    |   169287  
       8  | 37:37.13 |  3:44.52 |    169288    |   186139  
       9  | 41:21.65 | 10:06.27 |    186140    |   231616  
      10  | 51:28.17 |  5:50.73 |    231617    |   257939  
      11  | 57:19.15 |  8:13.02 |    257940    |   294916  
      12  | 65:32.17 |  7:20.26 |    294917    |   327942  


Track  1

    Filename K:\Musica LOSSLESS\01 - The Dark Secret (Ira Divina).wav

    Pre-gap length  0:00:02.00

    Peak level 97.7 %
    Track quality 100.0 %
    Test CRC 3F5D5C79
    Copy CRC 3F5D5C79
    Accurately ripped (confidence 100)  [78A330BF]
    Copy OK

Track  2

    Filename K:\Musica LOSSLESS\02 - Unholy Warcry.wav

    Pre-gap length  0:00:00.13

    Peak level 97.7 %
    Track quality 100.0 %
    Test CRC FED611BA
    Copy CRC FED611BA
    Accurately ripped (confidence 102)  [F38954B9]
    Copy OK

Track  3

    Filename K:\Musica LOSSLESS\03 - Never Forgotten Heroes.wav

    Pre-gap length  0:00:00.01

    Peak level 97.5 %
    Track quality 100.0 %
    Test CRC 5035CDA5
    Copy CRC 5035CDA5
    Accurately ripped (confidence 102)  [E6ED5586]
    Copy OK

Track  4

    Filename K:\Musica LOSSLESS\04 - Elgard's Green Valleys.wav

    Pre-gap length  0:00:00.15

    Peak level 71.8 %
    Track quality 100.0 %
    Test CRC 6167FEB0
    Copy CRC 6167FEB0
    Accurately ripped (confidence 102)  [172EDFF5]
    Copy OK

Track  5

    Filename K:\Musica LOSSLESS\05 - The Magic Of The Wizard's Dream.wav

    Peak level 97.7 %
    Track quality 100.0 %
    Test CRC 5C19B942
    Copy CRC 5C19B942
    Accurately ripped (confidence 103)  [DABBAB52]
    Copy OK

Track  6

    Filename K:\Musica LOSSLESS\06 - Erian's Mystical Rhymes (The White Dragon's Order).wav

    Pre-gap length  0:00:00.11

    Peak level 97.7 %
    Track quality 100.0 %
    Test CRC ED0D7065
    Copy CRC ED0D7065
    Accurately ripped (confidence 101)  [0D36321F]
    Copy OK

Track  7

    Filename K:\Musica LOSSLESS\07 - The Last Angels' Call.wav

    Pre-gap length  0:00:00.05

    Peak level 97.7 %
    Track quality 100.0 %
    Test CRC 2EAACE20
    Copy CRC 2EAACE20
    Accurately ripped (confidence 102)  [3B3748E5]
    Copy OK

Track  8

    Filename K:\Musica LOSSLESS\08 - Dragonland's Rivers.wav

    Pre-gap length  0:00:00.05

    Peak level 97.7 %
    Track quality 100.0 %
    Test CRC 564B409E
    Copy CRC 564B409E
    Accurately ripped (confidence 100)  [DD4F69D7]
    Copy OK

Track  9

    Filename K:\Musica LOSSLESS\09 - Sacred Power Of Raging Winds.wav

    Peak level 97.0 %
    Track quality 99.9 %
    Test CRC C5C382E8
    Copy CRC C5C382E8
    Accurately ripped (confidence 102)  [2BAD03F9]
    Copy OK

Track 10

    Filename K:\Musica LOSSLESS\10 - Guardiani Del Destino.wav

    Pre-gap length  0:00:00.26

    Peak level 97.7 %
    Track quality 99.9 %
    Test CRC 7505466F
    Copy CRC 7505466F
    Accurately ripped (confidence 102)  [E65E9CD0]
    Copy OK

Track 11

    Filename K:\Musica LOSSLESS\11 - Shadows Of Death.wav

    Peak level 97.6 %
    Track quality 100.0 %
    Test CRC A7737FBB
    Copy CRC A7737FBB
    Accurately ripped (confidence 9  [2590B370]
    Copy OK

Track 12

    Filename K:\Musica LOSSLESS\12 - Nightfall On The Grey Mountains.wav

    Pre-gap length  0:00:00.26

    Peak level 97.7 %
    Track quality 100.0 %
    Test CRC 35E4DF55
    Copy CRC 35E4DF55
    Accurately ripped (confidence 100)  [24B0D7D8]
    Copy OK


All tracks accurately ripped

No errors occurred

End of status report